<svg width="39" height="38" viewBox="0 0 39 38" fill="none" xmlns="http://www.w3.org/2000/svg">
<path d="M9.15469 37.7586H2.52723C1.48577 37.7586 0.633667 36.8165 0.633667 35.6652V14.7312C0.633667 13.5798 1.48577 12.6378 2.52723 12.6378H9.15469C10.1962 12.6378 11.0483 13.5798 11.0483 14.7312V35.6652C11.0483 36.8165 10.1962 37.7586 9.15469 37.7586ZM22.883 0.0773926H16.2555C15.2141 0.0773926 14.362 1.01942 14.362 2.17079V35.6652C14.362 36.8165 15.2141 37.7586 16.2555 37.7586H22.883C23.9245 37.7586 24.7766 36.8165 24.7766 35.6652V2.17079C24.7766 1.01942 23.9245 0.0773926 22.883 0.0773926ZM36.6113 16.8246H29.9839C28.9424 16.8246 28.0903 17.7666 28.0903 18.918V35.6652C28.0903 36.8165 28.9424 37.7586 29.9839 37.7586H36.6113C37.6528 37.7586 38.5049 36.8165 38.5049 35.6652V18.918C38.5049 17.7666 37.6528 16.8246 36.6113 16.8246Z" fill="white"/>
</svg>
