<svg width="40" height="40" viewBox="0 0 40 40" fill="none" xmlns="http://www.w3.org/2000/svg">
<g clip-path="url(#clip0_560_347)">
<path d="M0.00280762 1.68945C0.00280762 1.3657 0.131417 1.05521 0.360343 0.826286C0.58927 0.597359 0.89976 0.46875 1.22351 0.46875L8.54773 0.46875C8.87148 0.46875 9.18197 0.597359 9.4109 0.826286C9.63982 1.05521 9.76843 1.3657 9.76843 1.68945C9.76843 2.0132 9.63982 2.32369 9.4109 2.55262C9.18197 2.78155 8.87148 2.91016 8.54773 2.91016C5.17685 2.91016 2.44421 5.64279 2.44421 9.01367C2.44421 9.33742 2.3156 9.64791 2.08668 9.87684C1.85775 10.1058 1.54726 10.2344 1.22351 10.2344C0.89976 10.2344 0.58927 10.1058 0.360343 9.87684C0.131417 9.64791 0.00280762 9.33742 0.00280762 9.01367V1.68945ZM29.2997 1.68945C29.2997 1.3657 29.4283 1.05521 29.6572 0.826286C29.8861 0.597359 30.1966 0.46875 30.5204 0.46875L37.8446 0.46875C38.1684 0.46875 38.4788 0.597359 38.7078 0.826286C38.9367 1.05521 39.0653 1.3657 39.0653 1.68945V9.01367C39.0653 9.33742 38.9367 9.64791 38.7078 9.87684C38.4788 10.1058 38.1684 10.2344 37.8446 10.2344C37.5209 10.2344 37.2104 10.1058 36.9814 9.87684C36.7525 9.64791 36.6239 9.33742 36.6239 9.01367C36.6239 5.64279 33.8913 2.91016 30.5204 2.91016C30.1966 2.91016 29.8861 2.78155 29.6572 2.55262C29.4283 2.32369 29.2997 2.0132 29.2997 1.68945ZM1.22351 29.7656C1.54726 29.7656 1.85775 29.8942 2.08668 30.1232C2.3156 30.3521 2.44421 30.6626 2.44421 30.9863C2.44421 34.3572 5.17685 37.0898 8.54773 37.0898C8.87148 37.0898 9.18197 37.2185 9.4109 37.4474C9.63982 37.6763 9.76843 37.9868 9.76843 38.3105C9.76843 38.6343 9.63982 38.9448 9.4109 39.1737C9.18197 39.4026 8.87148 39.5312 8.54773 39.5312H1.22351C0.89976 39.5312 0.58927 39.4026 0.360343 39.1737C0.131417 38.9448 0.00280762 38.6343 0.00280762 38.3105V30.9863C0.00280762 30.6626 0.131417 30.3521 0.360343 30.1232C0.58927 29.8942 0.89976 29.7656 1.22351 29.7656ZM37.8446 29.7656C38.1684 29.7656 38.4788 29.8942 38.7078 30.1232C38.9367 30.3521 39.0653 30.6626 39.0653 30.9863V38.3105C39.0653 38.6343 38.9367 38.9448 38.7078 39.1737C38.4788 39.4026 38.1684 39.5312 37.8446 39.5312H30.5204C30.1966 39.5312 29.8861 39.4026 29.6572 39.1737C29.4283 38.9448 29.2997 38.6343 29.2997 38.3105C29.2997 37.9868 29.4283 37.6763 29.6572 37.4474C29.8861 37.2185 30.1966 37.0898 30.5204 37.0898C33.8913 37.0898 36.6239 34.3572 36.6239 30.9863C36.6239 30.6626 36.7525 30.3521 36.9814 30.1232C37.2104 29.8942 37.5209 29.7656 37.8446 29.7656ZM9.76843 11.4551C9.76843 10.7809 10.315 10.2344 10.9891 10.2344C11.6633 10.2344 12.2098 10.7809 12.2098 11.4551C12.2098 12.1293 11.6633 12.6758 10.9891 12.6758C10.315 12.6758 9.76843 12.1293 9.76843 11.4551Z" fill="#3CCB25"/>
<path d="M17.0927 5.35156H4.88562V17.5586H17.0927V5.35156ZM7.32703 7.79297H14.6512V15.1172H7.32703V7.79297ZM12.2098 27.3242H9.76843V29.7656H12.2098V27.3242Z" fill="white"/>
<path d="M17.0927 22.4414H4.88562V34.6484H17.0927V22.4414ZM7.32703 24.8828H14.6512V32.207H7.32703V24.8828ZM26.8583 10.2344H29.2997V12.6758H26.8583V10.2344Z" fill="white"/>
<path d="M21.9755 5.35156H34.1825V17.5586H21.9755V5.35156ZM24.4169 7.79297V15.1172H31.7411V7.79297H24.4169ZM19.5341 20V24.8828H21.9755V27.3242H19.5341V29.7656H24.4169V24.8828H26.8583V29.7656H29.2997V27.3242H34.1825V24.8828H26.8583V20H19.5341ZM24.4169 24.8828H21.9755V22.4414H24.4169V24.8828ZM34.1825 29.7656H31.7411V32.207H26.8583V34.6484H34.1825V29.7656ZM24.4169 34.6484V32.207H19.5341V34.6484H24.4169Z" fill="white"/>
<path d="M29.2997 22.4414H34.1825V20H29.2997V22.4414Z" fill="white"/>
<circle cx="10.962" cy="11.4279" r="1.41059" fill="#3CCB25"/>
<path d="M0.762329 20L38.6313 19.6745" stroke="#3CCB25" stroke-width="7" stroke-linecap="round" stroke-linejoin="round"/>
</g>
<defs>
<clipPath id="clip0_560_347">
<rect width="39.0625" height="39.0625" fill="white" transform="translate(0.00280762 0.46875)"/>
</clipPath>
</defs>
</svg>
