<svg width="75" height="76" viewBox="0 0 75 76" fill="none" xmlns="http://www.w3.org/2000/svg">
<path d="M37.5 30.5C41.4782 30.5 45.2936 28.9196 48.1066 26.1066C50.9196 23.2936 52.5 19.4782 52.5 15.5C52.5 11.5218 50.9196 7.70644 48.1066 4.8934C45.2936 2.08035 41.4782 0.5 37.5 0.5C33.5217 0.5 29.7064 2.08035 26.8934 4.8934C24.0803 7.70644 22.5 11.5218 22.5 15.5C22.5 19.4782 24.0803 23.2936 26.8934 26.1066C29.7064 28.9196 33.5217 30.5 37.5 30.5ZM13.125 41.75C15.6114 41.75 17.996 40.7623 19.7541 39.0041C21.5123 37.246 22.5 34.8614 22.5 32.375C22.5 29.8886 21.5123 27.504 19.7541 25.7459C17.996 23.9877 15.6114 23 13.125 23C10.6386 23 8.25403 23.9877 6.49587 25.7459C4.73772 27.504 3.75 29.8886 3.75 32.375C3.75 34.8614 4.73772 37.246 6.49587 39.0041C8.25403 40.7623 10.6386 41.75 13.125 41.75ZM71.25 32.375C71.25 34.8614 70.2623 37.246 68.5041 39.0041C66.746 40.7623 64.3614 41.75 61.875 41.75C59.3886 41.75 57.004 40.7623 55.2459 39.0041C53.4877 37.246 52.5 34.8614 52.5 32.375C52.5 29.8886 53.4877 27.504 55.2459 25.7459C57.004 23.9877 59.3886 23 61.875 23C64.3614 23 66.746 23.9877 68.5041 25.7459C70.2623 27.504 71.25 29.8886 71.25 32.375ZM37.5 34.25C42.4728 34.25 47.2419 36.2254 50.7582 39.7417C54.2746 43.2581 56.25 48.0272 56.25 53V75.5H18.75V53C18.75 48.0272 20.7254 43.2581 24.2417 39.7417C27.7581 36.2254 32.5272 34.25 37.5 34.25ZM11.25 53C11.25 50.4012 11.625 47.8925 12.33 45.5225L11.6925 45.575C8.47829 45.9279 5.50749 47.4549 3.34973 49.8632C1.19198 52.2714 -0.000839096 55.3915 4.42866e-07 58.625V75.5H11.25V53ZM75 75.5V58.625C75.0004 55.2814 73.7247 52.0637 71.4333 49.6287C69.1418 47.1937 66.0075 45.725 62.67 45.5225C63.3712 47.8925 63.75 50.4012 63.75 53V75.5H75Z" fill="white"/>
</svg>
